HIERARCHY
ROOT hips
{
	OFFSET 0.000000 104.274902 0.000000
	CHANNELS 6 Xposition Yposition Zposition Xrotation Yrotation Zrotation
	JOINT spine
	{
		OFFSET 0.000000 10.181549 0.131524
		CHANNELS 6 Xposition Yposition Zposition Xrotation Yrotation Zrotation
		JOINT chest
		{
			OFFSET 0.000000 9.893990 -1.470706
			CHANNELS 3 Xrotation Yrotation Zrotation
			JOINT upperChest
			{
				OFFSET 0.000000 9.220787 -1.370637
				CHANNELS 3 Xrotation Yrotation Zrotation
				JOINT neck
				{
					OFFSET 0.000000 16.740372 -2.049022
					CHANNELS 6 Xposition Yposition Zposition Xrotation Yrotation Zrotation
					JOINT head
					{
						OFFSET 0.000000 9.617859 1.684976
						CHANNELS 6 Xposition Yposition Zposition Xrotation Yrotation Zrotation
						JOINT headEnd
						{
							OFFSET 0.000000 22.037384 7.501072
							CHANNELS 6 Xposition Yposition Zposition Xrotation Yrotation Zrotation
							End Site
							{
								OFFSET 0.000000 23.106567 -2.828246
							}
						}
					}
				}
				JOINT rightShoulder
				{
					OFFSET -4.570000 11.014877 -2.160840
					CHANNELS 6 Xposition Yposition Zposition Xrotation Yrotation Zrotation
					JOINT rightUpperArm
					{
						OFFSET -10.592867 -0.524796 -2.232105
						CHANNELS 3 Xrotation Yrotation Zrotation
						JOINT rightLowerArm
						{
							OFFSET -27.841497 0.000000 -0.000002
							CHANNELS 3 Xrotation Yrotation Zrotation
							JOINT rightHand
							{
								OFFSET -28.328812 0.000000 -0.000001
								CHANNELS 3 Xrotation Yrotation Zrotation
								JOINT rightThumbProximal
								{
									OFFSET -2.464798 -1.573990 2.681911
									CHANNELS 6 Xposition Yposition Zposition Xrotation Yrotation Zrotation
									JOINT rightThumbIntermediate
									{
										OFFSET -3.244781 -1.873383 1.873376
										CHANNELS 3 Xrotation Yrotation Zrotation
										JOINT rightThumbDistal
										{
											OFFSET -2.646263 -1.527817 1.527818
											CHANNELS 6 Xposition Yposition Zposition Xrotation Yrotation Zrotation
											JOINT rightHandThumb4
											{
												OFFSET -1.994591 -1.151581 1.151575
												CHANNELS 6 Xposition Yposition Zposition Xrotation Yrotation Zrotation
												End Site
												{
													OFFSET -1.860176 -1.142715 1.365483
												}
											}
										}
									}
								}
								JOINT rightIndexProximal
								{
									OFFSET -9.108299 -0.517883 2.259803
									CHANNELS 6 Xposition Yposition Zposition Xrotation Yrotation Zrotation
									JOINT rightIndexIntermediate
									{
										OFFSET -3.699997 0.000000 0.000000
										CHANNELS 3 Xrotation Yrotation Zrotation
										JOINT rightIndexDistal
										{
											OFFSET -2.850006 0.000000 0.000000
											CHANNELS 3 Xrotation Yrotation Zrotation
											JOINT rightHandIndex4
											{
												OFFSET -2.772194 0.000000 0.000000
												CHANNELS 3 Xrotation Yrotation Zrotation
												End Site
												{
													OFFSET -2.772202 0.000000 -0.000484
												}
											}
										}
									}
								}
								JOINT rightMiddleProximal
								{
									OFFSET -9.532501 0.000000 -0.000000
									CHANNELS 6 Xposition Yposition Zposition Xrotation Yrotation Zrotation
									JOINT rightMiddleIntermediate
									{
										OFFSET -3.699997 0.000000 0.000000
										CHANNELS 3 Xrotation Yrotation Zrotation
										JOINT rightMiddleDistal
										{
											OFFSET -2.949997 0.000000 0.000000
											CHANNELS 3 Xrotation Yrotation Zrotation
											JOINT rightHandMiddle4
											{
												OFFSET -2.946594 0.000000 0.000000
												CHANNELS 3 Xrotation Yrotation Zrotation
												End Site
												{
													OFFSET -2.946602 0.000000 -0.000982
												}
											}
										}
									}
								}
								JOINT rightRingProximal
								{
									OFFSET -9.103600 -0.043106 -1.865100
									CHANNELS 6 Xposition Yposition Zposition Xrotation Yrotation Zrotation
									JOINT rightRingIntermediate
									{
										OFFSET -3.379303 0.000000 0.000000
										CHANNELS 3 Xrotation Yrotation Zrotation
										JOINT rightRingDistal
										{
											OFFSET -2.889694 0.000000 0.000000
											CHANNELS 3 Xrotation Yrotation Zrotation
											JOINT rightHandRing4
											{
												OFFSET -2.638802 0.000000 0.000000
												CHANNELS 3 Xrotation Yrotation Zrotation
												End Site
												{
													OFFSET -2.638802 0.000000 0.004218
												}
											}
										}
									}
								}
								JOINT rightLittleProximal
								{
									OFFSET -8.076698 -0.486725 -3.806299
									CHANNELS 6 Xposition Yposition Zposition Xrotation Yrotation Zrotation
									JOINT rightLittleIntermediate
									{
										OFFSET -3.600006 0.000000 0.000000
										CHANNELS 3 Xrotation Yrotation Zrotation
										JOINT rightLittleDistal
										{
											OFFSET -2.099998 0.000000 0.000000
											CHANNELS 3 Xrotation Yrotation Zrotation
											JOINT rightHandPinky4
											{
												OFFSET -2.115791 0.000000 0.000000
												CHANNELS 3 Xrotation Yrotation Zrotation
												End Site
												{
													OFFSET -2.115799 0.000000 0.000174
												}
											}
										}
									}
								}
							}
						}
					}
				}
				JOINT leftShoulder
				{
					OFFSET 4.570400 11.014679 -2.160816
					CHANNELS 6 Xposition Yposition Zposition Xrotation Yrotation Zrotation
					JOINT leftUpperArm
					{
						OFFSET 10.592373 -0.524597 -2.232116
						CHANNELS 3 Xrotation Yrotation Zrotation
						JOINT leftLowerArm
						{
							OFFSET 27.841488 0.000000 0.000001
							CHANNELS 3 Xrotation Yrotation Zrotation
							JOINT leftHand
							{
								OFFSET 28.328808 0.000000 -0.000000
								CHANNELS 3 Xrotation Yrotation Zrotation
								JOINT leftThumbProximal
								{
									OFFSET 2.466103 -1.576202 2.681698
									CHANNELS 6 Xposition Yposition Zposition Xrotation Yrotation Zrotation
									JOINT leftThumbIntermediate
									{
										OFFSET 3.243317 -1.872528 1.872530
										CHANNELS 3 Xrotation Yrotation Zrotation
										JOINT leftThumbDistal
										{
											OFFSET 2.647881 -1.528763 1.528754
											CHANNELS 6 Xposition Yposition Zposition Xrotation Yrotation Zrotation
											JOINT leftHandThumb4
											{
												OFFSET 1.998924 -1.154083 1.154080
												CHANNELS 6 Xposition Yposition Zposition Xrotation Yrotation Zrotation
												End Site
												{
													OFFSET 1.884041 -1.149155 1.337651
												}
											}
										}
									}
								}
								JOINT leftIndexProximal
								{
									OFFSET 9.109299 -0.518005 2.259900
									CHANNELS 6 Xposition Yposition Zposition Xrotation Yrotation Zrotation
									JOINT leftIndexIntermediate
									{
										OFFSET 3.699997 0.000000 0.000000
										CHANNELS 3 Xrotation Yrotation Zrotation
										JOINT leftIndexDistal
										{
											OFFSET 2.850006 0.000000 0.000000
											CHANNELS 3 Xrotation Yrotation Zrotation
											JOINT leftHandIndex4
											{
												OFFSET 2.774895 0.000000 0.000000
												CHANNELS 3 Xrotation Yrotation Zrotation
												End Site
												{
													OFFSET 2.774902 0.000000 -0.000072
												}
											}
										}
									}
								}
								JOINT leftMiddleProximal
								{
									OFFSET 9.533401 0.000000 0.000000
									CHANNELS 6 Xposition Yposition Zposition Xrotation Yrotation Zrotation
									JOINT leftMiddleIntermediate
									{
										OFFSET 3.699997 0.000000 0.000000
										CHANNELS 3 Xrotation Yrotation Zrotation
										JOINT leftMiddleDistal
										{
											OFFSET 2.949997 0.000000 0.000000
											CHANNELS 3 Xrotation Yrotation Zrotation
											JOINT leftHandMiddle4
											{
												OFFSET 2.952896 0.000000 0.000000
												CHANNELS 3 Xrotation Yrotation Zrotation
												End Site
												{
													OFFSET 2.952904 0.000000 0.000165
												}
											}
										}
									}
								}
								JOINT leftRingProximal
								{
									OFFSET 9.104500 -0.042999 -1.865101
									CHANNELS 6 Xposition Yposition Zposition Xrotation Yrotation Zrotation
									JOINT leftRingIntermediate
									{
										OFFSET 3.149994 0.000000 0.000000
										CHANNELS 3 Xrotation Yrotation Zrotation
										JOINT leftRingDistal
										{
											OFFSET 2.950005 0.000000 0.000000
											CHANNELS 3 Xrotation Yrotation Zrotation
											JOINT leftHandRing4
											{
												OFFSET 2.644302 0.000000 0.000000
												CHANNELS 3 Xrotation Yrotation Zrotation
												End Site
												{
													OFFSET 2.644302 0.000000 0.000083
												}
											}
										}
									}
								}
								JOINT leftLittleProximal
								{
									OFFSET 8.077805 -0.486893 -3.806302
									CHANNELS 6 Xposition Yposition Zposition Xrotation Yrotation Zrotation
									JOINT leftLittleIntermediate
									{
										OFFSET 3.600006 0.000000 0.000000
										CHANNELS 3 Xrotation Yrotation Zrotation
										JOINT leftLittleDistal
										{
											OFFSET 2.099998 0.000000 0.000000
											CHANNELS 3 Xrotation Yrotation Zrotation
											JOINT leftHandPinky4
											{
												OFFSET 2.125496 0.000000 0.000000
												CHANNELS 3 Xrotation Yrotation Zrotation
												End Site
												{
													OFFSET 2.125504 0.000000 -0.001254
												}
											}
										}
									}
								}
							}
						}
					}
				}
			}
		}
	}
	JOINT rightUpperLeg
	{
		OFFSET -8.207800 -6.751701 -1.599544
		CHANNELS 6 Xposition Yposition Zposition Xrotation Yrotation Zrotation
		JOINT rightLowerLeg
		{
			OFFSET 0.000004 -44.370152 0.345934
			CHANNELS 3 Xrotation Yrotation Zrotation
			JOINT rightFoot
			{
				OFFSET 0.000004 -44.423664 -3.043535
				CHANNELS 3 Xrotation Yrotation Zrotation
				JOINT rightToes
				{
					OFFSET 0.000001 -8.728691 10.710592
					CHANNELS 3 Xrotation Yrotation Zrotation
					JOINT rightToesEnd
					{
						OFFSET 0.000000 -0.000665 9.278101
						CHANNELS 3 Xrotation Yrotation Zrotation
						End Site
						{
							OFFSET 0.000000 -0.000665 9.278103
						}
					}
				}
			}
		}
	}
	JOINT leftUpperLeg
	{
		OFFSET 8.207800 -6.751701 -1.599544
		CHANNELS 6 Xposition Yposition Zposition Xrotation Yrotation Zrotation
		JOINT leftLowerLeg
		{
			OFFSET 0.000004 -44.370037 0.346940
			CHANNELS 3 Xrotation Yrotation Zrotation
			JOINT leftFoot
			{
				OFFSET 0.000004 -44.423611 -3.044388
				CHANNELS 3 Xrotation Yrotation Zrotation
				JOINT leftToes
				{
					OFFSET 0.000001 -8.728690 10.710592
					CHANNELS 3 Xrotation Yrotation Zrotation
					JOINT leftToesEnd
					{
						OFFSET 0.000000 -0.000680 9.278101
						CHANNELS 3 Xrotation Yrotation Zrotation
						End Site
						{
							OFFSET 0.000000 -0.000680 9.278101
						}
					}
				}
			}
		}
	}
}
MOTION
Frames: 4
Frame Time: 0.033333
1.867198 103.149605 -1.725554 4.391871 -178.262719 0.799025 -0.000001 10.181539 0.131524 -0.948731 -4.205816 -3.833566 0.617379 -1.102529 1.501627 0.640198 -1.100713 1.498155 0.000000 16.740345 -2.049020 0.375022 1.908775 -1.118287 0.000000 9.617856 1.684973 7.724968 7.753368 -0.275763 0.000000 22.037369 7.501076 -0.000000 0.000000 -0.000000 -4.570001 11.014844 -2.160842 0.940599 4.951202 4.361677 -39.086724 6.825651 44.713325 0.000166 121.909342 -0.000113 -13.211119 18.286440 -33.427291 -2.464797 -1.573983 2.681903 33.992806 -17.793666 4.582314 40.959214 -9.124574 0.220505 -2.646240 -1.527823 1.527809 16.790178 -0.892134 -4.054066 -1.994594 -1.151551 1.151573 0.000001 -0.000003 0.000001 -9.108288 -0.517887 2.259806 5.552904 -6.807355 78.387609 7.266698 -6.940961 92.633505 2.136113 -5.018040 46.096124 0.000000 -0.000000 0.000002 -9.532507 0.000005 -0.000000 5.552904 -6.807355 78.387609 7.266700 -6.940959 92.633505 2.136115 -5.018039 46.096124 0.000000 -0.000000 0.000004 -9.103587 -0.043113 -1.865097 5.552905 -6.807355 78.387609 7.266700 -6.940961 92.633505 2.136116 -5.018040 46.096120 0.000002 -0.000001 0.000002 -8.076672 -0.486720 -3.806293 5.552900 -6.807356 78.387595 7.266703 -6.940967 92.633512 2.136123 -5.018039 46.096124 -0.000000 0.000001 0.000001 4.570401 11.014680 -2.160815 1.012595 -5.270110 -9.531678 -63.400445 -62.517650 -57.190605 0.000056 -93.910948 0.000052 -14.723648 -20.857757 5.423595 2.466093 -1.576210 2.681692 -3.038084 18.722068 -12.520707 12.000659 21.632268 5.115068 2.647868 -1.528755 1.528754 3.582365 8.247585 5.339718 1.998921 -1.154046 1.154074 -0.000001 0.000001 0.000001 9.109287 -0.518031 2.259897 0.077730 1.033889 -8.600216 0.327478 2.102224 -17.707836 0.082320 1.063780 -8.850901 -0.000001 -0.000000 0.000001 9.533398 0.000011 -0.000002 0.077441 1.031981 -8.584228 0.328059 2.104048 -17.723817 0.082321 1.063784 -8.850909 -0.000000 0.000000 0.000001 9.104496 -0.042997 -1.865103 0.077731 1.033890 -8.600216 0.327478 2.102226 -17.707839 0.082321 1.063781 -8.850901 -0.000000 -0.000001 0.000000 8.077807 -0.486896 -3.806304 0.667947 5.045129 -8.121105 0.328105 -1.954964 -18.194738 0.082318 1.063779 -8.850898 0.000000 -0.000002 0.000001 -8.207801 -6.751709 -1.599545 -4.014490 -14.588762 -8.713130 13.703161 5.896087 -4.720444 -6.280700 -0.629797 5.933620 -0.433976 0.000001 -0.000000 0.000000 0.000000 -0.000001 8.207801 -6.751695 -1.599545 -5.026890 17.752732 7.870422 11.414179 -10.297659 4.947211 -6.175422 -4.260558 -5.466864 -0.060278 0.000003 0.000002 0.000000 -0.000000 -0.000001 
1.959958 103.124496 -1.785270 4.972199 -178.387643 0.819134 -0.000001 10.181558 0.131522 -0.637197 -4.453587 -3.861212 0.499773 -1.165548 1.516445 0.523983 -1.163583 1.514310 0.000000 16.740377 -2.049023 0.382778 1.956716 -1.320780 0.000000 9.617836 1.684976 8.885370 7.636094 -0.253568 -0.000000 22.037384 7.501072 0.000000 -0.000000 -0.000000 -4.570000 11.014887 -2.160842 0.942697 4.975892 4.330316 -38.805286 6.891240 44.907650 0.000192 121.448044 -0.000123 -13.006652 18.670658 -33.313821 -2.464783 -1.573985 2.681907 33.992806 -17.793660 4.582311 40.959220 -9.124569 0.220502 -2.646266 -1.527785 1.527813 16.790178 -0.892134 -4.054061 -1.994593 -1.151598 1.151582 0.000001 -0.000001 -0.000002 -9.108288 -0.517883 2.259806 5.552906 -6.807355 78.387609 7.266697 -6.940961 92.633505 2.136116 -5.018038 46.096124 0.000000 -0.000001 0.000001 -9.532505 -0.000002 0.000000 5.552904 -6.807356 78.387609 7.266699 -6.940959 92.633505 2.136116 -5.018038 46.096124 -0.000001 -0.000001 0.000001 -9.103618 -0.043107 -1.865099 5.552906 -6.807355 78.387609 7.266700 -6.940961 92.633505 2.136116 -5.018038 46.096124 0.000002 -0.000002 0.000000 -8.076699 -0.486723 -3.806298 5.552902 -6.807356 78.387595 7.266702 -6.940964 92.633505 2.136125 -5.018037 46.096124 0.000003 -0.000001 0.000003 4.570402 11.014688 -2.160817 1.002860 -4.874557 -9.361147 -63.739148 -62.574143 -57.751428 0.000207 -93.632277 0.000184 -15.127802 -20.737950 5.319670 2.466091 -1.576208 2.681700 -3.038083 18.722074 -12.520705 12.000658 21.632266 5.115067 2.647878 -1.528722 1.528754 3.582365 8.247585 5.339719 1.998924 -1.154093 1.154073 0.000000 0.000000 0.000003 9.109289 -0.518018 2.259899 0.077730 1.033890 -8.600210 0.327479 2.102223 -17.707843 0.082320 1.063774 -8.850901 0.000000 -0.000003 0.000001 9.533391 0.000028 -0.000000 0.077442 1.031986 -8.584225 0.328059 2.104052 -17.723818 0.082319 1.063780 -8.850907 -0.000000 -0.000000 0.000000 9.104506 -0.042983 -1.865105 0.077729 1.033890 -8.600210 0.327477 2.102225 -17.707841 0.082320 1.063775 -8.850901 0.000000 0.000001 -0.000000 8.077807 -0.486881 -3.806302 0.667946 5.045129 -8.121104 0.328104 -1.954966 -18.194736 0.082317 1.063777 -8.850899 0.000000 -0.000002 0.000000 -8.207802 -6.751703 -1.599544 -3.511172 -14.812848 -8.718041 13.937698 6.290342 -4.811949 -6.515066 -0.650515 5.992681 -0.463520 -0.000008 -0.000002 0.000000 0.000001 0.000000 8.207799 -6.751692 -1.599545 -4.481763 17.832758 7.852893 11.692951 -10.248325 5.218718 -6.492882 -4.494812 -5.478266 -0.075154 0.000003 -0.000000 0.000000 0.000000 0.000000 
2.033726 103.092850 -1.850080 5.505889 -178.545038 0.847986 0.000000 10.181550 0.131524 -0.310550 -4.680128 -3.859446 0.385877 -1.223152 1.511343 0.411100 -1.220960 1.510623 -0.000000 16.740334 -2.049022 0.370678 1.999104 -1.479998 0.000000 9.617846 1.684980 10.010281 7.562872 -0.307406 -0.000000 22.037369 7.501074 0.000000 -0.000000 -0.000000 -4.570001 11.014858 -2.160841 0.943108 4.993262 4.336143 -38.599274 7.169617 44.934944 0.000197 120.978892 -0.000130 -12.791653 18.839897 -33.413012 -2.464780 -1.573995 2.681905 33.992806 -17.793662 4.582313 40.959217 -9.124574 0.220503 -2.646278 -1.527834 1.527835 16.790174 -0.892131 -4.054063 -1.994583 -1.151585 1.151569 0.000002 -0.000003 -0.000000 -9.108316 -0.517898 2.259804 5.552902 -6.807354 78.387609 7.266698 -6.940963 92.633505 2.136118 -5.018038 46.096124 0.000002 -0.000003 0.000002 -9.532505 0.000005 0.000000 5.552903 -6.807355 78.387602 7.266699 -6.940959 92.633505 2.136119 -5.018040 46.096124 -0.000001 0.000000 0.000000 -9.103601 -0.043123 -1.865100 5.552903 -6.807355 78.387609 7.266699 -6.940959 92.633505 2.136119 -5.018039 46.096124 -0.000001 0.000002 0.000000 -8.076702 -0.486716 -3.806298 5.552900 -6.807356 78.387595 7.266701 -6.940967 92.633505 2.136128 -5.018036 46.096120 0.000000 -0.000000 0.000000 4.570400 11.014670 -2.160816 0.992942 -4.516771 -9.130039 -64.090527 -62.502467 -58.285727 -0.000041 -93.363659 -0.000045 -15.492308 -20.730748 5.365526 2.466110 -1.576212 2.681700 -3.038082 18.722074 -12.520707 12.000660 21.632271 5.115067 2.647890 -1.528725 1.528753 3.582365 8.247587 5.339718 1.998924 -1.154109 1.154073 0.000001 -0.000001 0.000003 9.109299 -0.518021 2.259897 0.077728 1.033890 -8.600217 0.327476 2.102222 -17.707841 0.082320 1.063776 -8.850901 0.000000 -0.000003 0.000001 9.533409 0.000008 -0.000004 0.077441 1.031983 -8.584230 0.328056 2.104048 -17.723820 0.082320 1.063782 -8.850909 0.000000 -0.000001 0.000000 9.104506 -0.043004 -1.865103 0.077730 1.033891 -8.600217 0.327477 2.102222 -17.707836 0.082320 1.063779 -8.850902 -0.000001 0.000000 -0.000001 8.077812 -0.486894 -3.806305 0.667946 5.045132 -8.121107 0.328104 -1.954963 -18.194736 0.082317 1.063775 -8.850898 -0.000000 0.000001 -0.000000 -8.207802 -6.751711 -1.599545 -3.080858 -15.012727 -8.753836 14.202893 6.750653 -4.917670 -6.759643 -0.678529 6.106409 -0.505326 -0.000006 -0.000003 -0.000000 0.000001 -0.000000 8.207799 -6.751705 -1.599545 -3.974835 17.866161 7.797284 12.007398 -10.200172 5.493778 -6.818815 -4.614001 -5.476298 -0.068603 -0.000004 -0.000002 -0.000000 0.000000 -0.000000 
2.066613 103.043144 -1.913027 5.951329 -178.709550 0.911266 0.000000 10.181554 0.131524 0.011404 -4.853380 -3.816057 0.281519 -1.266993 1.480086 0.307163 -1.264557 1.480752 0.000000 16.740353 -2.049021 0.310994 2.015830 -1.565220 -0.000000 9.617865 1.684968 11.094144 7.489951 -0.496618 0.000000 22.037369 7.501075 -0.000001 0.000000 -0.000000 -4.569999 11.014862 -2.160842 0.938273 4.957929 4.381311 -38.538048 7.729352 44.806601 0.000159 120.494973 -0.000122 -12.495729 18.767528 -33.693812 -2.464790 -1.573988 2.681901 33.992810 -17.793664 4.582314 40.959214 -9.124573 0.220503 -2.646292 -1.527822 1.527828 16.790179 -0.892134 -4.054060 -1.994606 -1.151586 1.151574 0.000001 -0.000002 0.000003 -9.108320 -0.517894 2.259799 5.552904 -6.807355 78.387602 7.266698 -6.940962 92.633505 2.136115 -5.018038 46.096120 0.000003 -0.000001 0.000005 -9.532475 0.000009 -0.000005 5.552904 -6.807355 78.387602 7.266699 -6.940959 92.633505 2.136117 -5.018039 46.096124 0.000000 -0.000001 0.000003 -9.103602 -0.043106 -1.865105 5.552906 -6.807355 78.387602 7.266699 -6.940959 92.633505 2.136116 -5.018037 46.096124 0.000000 -0.000000 -0.000004 -8.076685 -0.486719 -3.806301 5.552903 -6.807356 78.387595 7.266702 -6.940963 92.633505 2.136123 -5.018037 46.096120 -0.000001 0.000000 0.000005 4.570400 11.014662 -2.160817 0.982811 -4.208452 -8.801238 -64.548361 -62.261634 -58.875090 0.000245 -93.065221 0.000258 -15.894472 -21.083045 5.564673 2.466087 -1.576223 2.681700 -3.038079 18.722074 -12.520710 12.000658 21.632264 5.115064 2.647879 -1.528722 1.528753 3.582365 8.247584 5.339716 1.998906 -1.154109 1.154078 0.000001 0.000002 0.000001 9.109301 -0.518019 2.259902 0.077729 1.033888 -8.600213 0.327478 2.102223 -17.707841 0.082320 1.063778 -8.850902 -0.000000 -0.000002 -0.000000 9.533407 0.000027 0.000003 0.077442 1.031983 -8.584225 0.328058 2.104048 -17.723822 0.082320 1.063780 -8.850909 0.000000 0.000000 0.000000 9.104504 -0.042994 -1.865098 0.077730 1.033889 -8.600213 0.327478 2.102224 -17.707839 0.082320 1.063777 -8.850902 0.000000 0.000001 -0.000000 8.077811 -0.486894 -3.806298 0.667947 5.045130 -8.121106 0.328104 -1.954963 -18.194736 0.082318 1.063778 -8.850898 -0.000000 0.000001 0.000000 -8.207803 -6.751708 -1.599544 -2.800160 -15.171981 -8.864179 14.544627 7.258952 -5.052430 -7.033153 -0.723517 6.343878 -0.564664 0.000004 0.000004 0.000000 -0.000001 -0.000000 8.207800 -6.751712 -1.599544 -3.581996 17.756364 7.646729 12.460608 -10.168773 5.797144 -7.171294 -4.547480 -5.415467 -0.027794 -0.000001 -0.000001 0.000000 0.000000 0.000000 
